<svg xmlns="http://www.w3.org/2000/svg" version="1.1">
  <g id="settings">
    <path fill="currentColor" d="m362.92 436.8h-25.832c-10.98 0-20.266-7.8633-22.094-18.699l-5.6211-33.758c-1.4766-0.58203-2.9414-1.1914-4.4062-1.8438l-27.848 19.891c-8.9258 6.3906-21.066 5.3984-28.852-2.3789l-18.266-18.273c-7.7773-7.7734-8.7695-19.906-2.3867-28.852l19.898-27.859c-0.65625-1.4688-1.2695-2.9297-1.8477-4.3945l-33.73-5.6289c-10.859-1.7969-18.734-11.086-18.734-22.09v-25.82c0-11.004 7.875-20.293 18.727-22.094l33.73-5.6289c0.58203-1.4688 1.1914-2.9297 1.8477-4.3945l-19.898-27.859c-6.4023-8.9531-5.3945-21.094 2.3867-28.855l18.266-18.262c7.7891-7.7891 19.918-8.7656 28.863-2.3867l27.836 19.891c1.4688-0.64844 2.9297-1.2656 4.4062-1.8438l5.6211-33.738c1.8281-10.859 11.113-18.723 22.098-18.723h25.832c10.98 0 20.266 7.8633 22.094 18.699l5.6211 33.758c1.4766 0.58203 2.9414 1.1914 4.4062 1.8438l27.848-19.891c8.9258-6.3828 21.078-5.4023 28.852 2.3867l18.266 18.266c7.7773 7.7617 8.7812 19.902 2.3867 28.852l-19.898 27.859c0.65625 1.4688 1.2695 2.9297 1.8477 4.3945l33.73 5.6289c10.859 1.8008 18.734 11.094 18.734 22.09v25.82c0 11.004-7.875 20.293-18.727 22.094l-33.73 5.6289c-0.58203 1.4688-1.1914 2.9297-1.8477 4.3945l19.898 27.859c6.3906 8.9492 5.3945 21.086-2.3867 28.852l-18.266 18.266c-7.7656 7.7734-19.918 8.793-28.863 2.3867l-27.836-19.891c-1.4688 0.64844-2.9297 1.2656-4.4062 1.8438l-5.6211 33.738c-1.8281 10.859-11.113 18.723-22.098 18.723zm-59.086-78.461c1.7578 0 3.5234 0.41016 5.1406 1.25 4.582 2.3672 9.2109 4.3125 13.758 5.7578 4.0039 1.2773 6.957 4.6875 7.6445 8.8242l6.707 40.227h25.832l6.7031-40.23c0.6875-4.1367 3.6406-7.5547 7.6445-8.8242 4.5469-1.4492 9.1797-3.3867 13.758-5.7578 3.7422-1.9219 8.2383-1.5977 11.648 0.83984l33.23 23.738 18.266-18.266-23.734-33.234c-2.4414-3.4102-2.7656-7.9023-0.83984-11.637 2.3633-4.5859 4.3008-9.2305 5.7617-13.793 1.2812-3.9922 4.6797-6.9336 8.8242-7.6211l40.223-6.6992v-25.82l-40.219-6.7031c-4.1445-0.6875-7.5469-3.6289-8.8242-7.6211-1.4688-4.5586-3.3984-9.207-5.7617-13.793-1.9258-3.7344-1.5977-8.2266 0.83984-11.637l23.734-33.234-18.266-18.266-33.23 23.738c-3.4102 2.4453-7.9062 2.7773-11.648 0.83984-4.582-2.3672-9.2109-4.3125-13.758-5.7578-4.0039-1.2773-6.957-4.6875-7.6445-8.8242l-6.7031-40.234h-25.832l-6.7031 40.23c-0.6875 4.1367-3.6406 7.5547-7.6445 8.8242-4.5469 1.4492-9.1797 3.3867-13.758 5.7578-3.7188 1.9375-8.2266 1.6016-11.648-0.83984l-33.23-23.738-18.266 18.266 23.734 33.234c2.4414 3.4102 2.7656 7.9023 0.83984 11.637-2.3633 4.5859-4.3008 9.2305-5.7617 13.793-1.2812 3.9922-4.6797 6.9336-8.8242 7.6211l-40.223 6.6992v25.82l40.219 6.7031c4.1445 0.6875 7.5469 3.6289 8.8242 7.6211 1.4688 4.5586 3.3984 9.207 5.7617 13.793 1.9258 3.7344 1.5977 8.2266-0.83984 11.637l-23.734 33.234 18.266 18.266 33.23-23.738c1.9297-1.3789 4.2109-2.082 6.5039-2.082zm46.168-22.34c-30.879 0-56-25.121-56-56s25.121-56 56-56 56 25.121 56 56-25.121 56-56 56zm0-89.602c-18.531 0-33.602 15.07-33.602 33.602s15.07 33.602 33.602 33.602 33.602-15.07 33.602-33.602-15.07-33.602-33.602-33.602z" style="&#10;    transform: translate(-56%, -35%);&#10;" />
  </g>
  <path id="iconx" d="M4.646 4.646a.5.5 0 0 1 .708 0L8 7.293l2.646-2.647a.5.5 0 0 1 .708.708L8.707 8l2.647 2.646a.5.5 0 0 1-.708.708L8 8.707l-2.646 2.647a.5.5 0 0 1-.708-.708L7.293 8 4.646 5.354a.5.5 0 0 1 0-.708z"></path>
  <g id="fullscreen">
    <polyline points="15 3 21 3 21 9" />
    <polyline points="9 21 3 21 3 15" />
    <line x1="21" y1="3" x2="14" y2="10" />
    <line x1="3" y1="21" x2="10" y2="14" />
  </g>
  <g id="exitscreen">
    <polyline points="4 14 10 14 10 20" />
    <polyline points="20 10 14 10 14 4" />
    <line x1="14" y1="10" x2="21" y2="3" />
    <line x1="3" y1="21" x2="10" y2="14" />
  </g>
  <g id="search">
    <circle cx="22.01" cy="22" r="20.02" fill="none" stroke="currentColor" stroke-miterlimit="10" stroke-width="4" />
    <path fill="none" stroke="currentColor" stroke-miterlimit="10" stroke-width="4" d="M35.94,36Q49,49,62,62" />
  </g>
  <g id="notes">
    <path d="M3.5,24h15A3.51,3.51,0,0,0,22,20.487V12.95a1,1,0,0,0-2,0v7.537A1.508,1.508,0,0,1,18.5,22H3.5A1.508,1.508,0,0,1,2,20.487V5.513A1.508,1.508,0,0,1,3.5,4H11a1,1,0,0,0,0-2H3.5A3.51,3.51,0,0,0,0,5.513V20.487A3.51,3.51,0,0,0,3.5,24Z" />
    <path d="M9.455,10.544l-.789,3.614a1,1,0,0,0,.271.921,1.038,1.038,0,0,0,.92.269l3.606-.791a1,1,0,0,0,.494-.271l9.114-9.114a3,3,0,0,0,0-4.243,3.07,3.07,0,0,0-4.242,0l-9.1,9.123A1,1,0,0,0,9.455,10.544Zm10.788-8.2a1.022,1.022,0,0,1,1.414,0,1.009,1.009,0,0,1,0,1.413l-.707.707L19.536,3.05Zm-8.9,8.914,6.774-6.791,1.4,1.407-6.777,6.793-1.795.394Z" />
  </g>
  <g id="userprofile">
    <path d="M480 64A416.64 416.64 0 0 0 64 480 416.64 416.64 0 0 0 480 896 416.64 416.64 0 0 0 896 480 416.64 416.64 0 0 0 480 64z m0 64C674.752 128 832 285.248 832 480a351.36 351.36 0 0 1-81.024 225.024 289.408 289.408 0 0 0-162.944-171.776A159.36 159.36 0 0 0 640 416C640 328 568 256 480 256A160.448 160.448 0 0 0 320 416c0 46.272 20.224 88 52.032 117.248a289.024 289.024 0 0 0-162.752 171.776A350.208 350.208 0 0 1 128 480C128 285.248 285.248 128 480 128z m0 192C533.504 320 576 362.496 576 416S533.504 512 480 512A95.36 95.36 0 0 1 384 416C384 362.496 426.496 320 480 320z m0 256c108.8 0 198.016 77.248 218.752 179.776A350.528 350.528 0 0 1 480 832a349.248 349.248 0 0 1-218.496-76.224A222.72 222.72 0 0 1 480 576z" fill="currentColor" />
  </g>
  <g id="reload">
    <path d="M25 1A24.005 24.005 0 0 0 7 9.126V3H5v10h10v-2H8.042A22.001 22.001 0 0 1 25 3c12.131 0 22 9.869 22 22s-9.869 22-22 22S3 37.131 3 25c0-2.633.46-5.208 1.367-7.652l-1.875-.696A23.913 23.913 0 0 0 1 25c0 13.233 10.767 24 24 24s24-10.767 24-24S38.233 1 25 1z" />
  </g>
  <g id="addnote">
    <path d="M14 4.5V14a2 2 0 0 1-2 2H4a2 2 0 0 1-2-2V2a2 2 0 0 1 2-2h5.5L14 4.5zm-3 0A1.5 1.5 0 0 1 9.5 3V1H4a1 1 0 0 0-1 1v12a1 1 0 0 0 1 1h8a1 1 0 0 0 1-1V4.5h-2z"></path>
  </g>
  <g id="fnote">
    <path d="M13 9h5.5L13 3.5V9M6 2h8l6 6v12a2 2 0 0 1-2 2H6a2 2 0 0 1-2-2V4c0-1.11.89-2 2-2m9 16v-2H6v2h9m3-4v-2H6v2h12z" fill="#42a5f5" />
  </g>
  <g id="lock">
    <path d="M12 17.5a2 2 0 0 0 2-2 2 2 0 0 0-2-2 2 2 0 0 0-2 2 2 2 0 0 0 2 2m6-9a2 2 0 0 1 2 2v10a2 2 0 0 1-2 2H6a2 2 0 0 1-2-2v-10a2 2 0 0 1 2-2h1v-2a5 5 0 0 1 5-5 5 5 0 0 1 5 5v2h1m-6-5a3 3 0 0 0-3 3v2h6v-2a3 3 0 0 0-3-3z" fill="#ffd54f" />
  </g>
  <g id="locked">
    <path d="M12 17.5a2 2 0 0 0 2-2 2 2 0 0 0-2-2 2 2 0 0 0-2 2 2 2 0 0 0 2 2m6-9a2 2 0 0 1 2 2v10a2 2 0 0 1-2 2H6a2 2 0 0 1-2-2v-10a2 2 0 0 1 2-2h1v-2a5 5 0 0 1 5-5 5 5 0 0 1 5 5v2h1m-6-5a3 3 0 0 0-3 3v2h6v-2a3 3 0 0 0-3-3z" fill="#ffd54f" />
  </g>
  <g id="hidden">
    <path d="M17.94 17.94A10.07 10.07 0 0 1 12 20c-7 0-11-8-11-8a18.45 18.45 0 0 1 5.06-5.94M9.9 4.24A9.12 9.12 0 0 1 12 4c7 0 11 8 11 8a18.5 18.5 0 0 1-2.16 3.19m-6.72-1.07a3 3 0 1 1-4.24-4.24" />
    <line x1="1" y1="1" x2="23" y2="23" />
  </g>
  <g id="eyeoff">
    <g id="SVGRepo_bgCarrier" stroke-width="0"></g>
    <g id="SVGRepo_tracerCarrier" stroke-linecap="round" stroke-linejoin="round"></g>
    <g id="SVGRepo_iconCarrier">
      <path d="M2.78309 20.9991L21.5323 2.99988" stroke="currentColor" stroke-width="1" stroke-linecap="round" stroke-linejoin="round"></path>
      <path d="M19.7491 8.87964C20.8636 9.69316 21.8934 10.6168 22.8229 11.6365C23.098 11.9419 23.2503 12.3384 23.2503 12.7495C23.2503 13.1605 23.098 13.557 22.8229 13.8624C20.257 16.6863 16.0992 19.5682 11.9994 19.4992C10.9829 19.5068 9.97136 19.3591 8.99963 19.0614" stroke="currentColor" stroke-width="1" stroke-linecap="round" stroke-linejoin="round"></path>
      <path d="M3.77916 16.2603C2.84594 15.5357 1.97616 14.7328 1.17927 13.8604C0.904163 13.555 0.751923 13.1585 0.751923 12.7475C0.751923 12.3364 0.904163 11.9399 1.17927 11.6345C3.80016 8.75164 7.96899 5.93275 11.9998 5.99975C12.7749 5.99106 13.548 6.07677 14.3021 6.2549" stroke="currentColor" stroke-width="1" stroke-linecap="round" stroke-linejoin="round"></path>
      <path d="M11.9994 8.99963C11.5069 8.9995 11.0192 9.09641 10.5642 9.28481C10.1092 9.47321 9.69575 9.74941 9.34752 10.0976C8.99929 10.4459 8.72308 10.8593 8.53468 11.3143C8.35077 11.7585 8.25405 12.2338 8.24966 12.7143" stroke="currentColor" stroke-width="1" stroke-linecap="round" stroke-linejoin="round"></path>
      <path d="M11.9995 16.4993C12.492 16.4993 12.9797 16.4023 13.4347 16.2138C13.8898 16.0253 14.3032 15.749 14.6514 15.4007C14.9996 15.0524 15.2758 14.6389 15.4642 14.1838C15.6495 13.7362 15.7463 13.2571 15.7493 12.7729" stroke="currentColor" stroke-width="1" stroke-linecap="round" stroke-linejoin="round"></path>
    </g>
  </g>
  <g id="tools">
    <path id="tools_1_" d="M25.128,31.48c-1.653,0-3.285-0.644-4.505-1.862c-1.697-1.698-2.29-4.224-1.542-6.493L8.874,12.92  c-2.271,0.747-4.794,0.153-6.491-1.543c-1.904-1.903-2.404-4.813-1.244-7.24c0.05-0.105,0.148-0.18,0.264-0.2  c0.118-0.018,0.233,0.018,0.315,0.101L5.72,8.04c0.64,0.638,1.68,0.639,2.32,0c0.639-0.64,0.639-1.68,0-2.32L4.038,1.718  c-0.083-0.083-0.12-0.2-0.101-0.315c0.02-0.115,0.094-0.213,0.2-0.264c2.427-1.161,5.336-0.66,7.239,1.243  c1.698,1.698,2.292,4.224,1.542,6.494l10.206,10.205c2.271-0.752,4.796-0.156,6.493,1.542c1.902,1.903,2.402,4.812,1.243,7.24  c-0.051,0.105-0.149,0.18-0.265,0.199c-0.108,0.022-0.231-0.018-0.315-0.1l-4.002-4.002c-0.639-0.639-1.68-0.639-2.318,0  c-0.64,0.64-0.64,1.68,0,2.318l4.002,4.002c0.082,0.083,0.12,0.2,0.1,0.315s-0.094,0.214-0.199,0.265  C26.991,31.277,26.057,31.48,25.128,31.48z M8.968,12.146c0.094,0,0.186,0.037,0.254,0.105L19.75,22.775  c0.1,0.1,0.132,0.248,0.083,0.38c-0.765,2.062-0.255,4.399,1.3,5.953c1.564,1.564,3.896,2.06,5.942,1.305l-3.624-3.624  c-0.919-0.92-0.919-2.417,0-3.338c0.924-0.918,2.42-0.917,3.338,0l3.624,3.624c0.755-2.047,0.26-4.378-1.305-5.942  c-1.554-1.555-3.889-2.065-5.953-1.3c-0.132,0.048-0.279,0.017-0.38-0.083L12.25,9.225c-0.1-0.099-0.132-0.248-0.083-0.38  c0.766-2.062,0.255-4.399-1.299-5.954c-1.564-1.564-3.896-2.06-5.943-1.304l3.624,3.624C8.993,5.655,9.237,6.248,9.237,6.88  S8.992,8.105,8.548,8.548c-0.888,0.889-2.45,0.888-3.337,0L1.587,4.925c-0.755,2.046-0.26,4.378,1.304,5.943  c1.554,1.554,3.892,2.064,5.952,1.3C8.884,12.153,8.926,12.146,8.968,12.146z M2.858,31.24c-0.092,0-0.185-0.036-0.254-0.105  l-1.743-1.743c-0.136-0.136-0.141-0.354-0.012-0.497l2.936-3.229c0.066-0.073,0.159-0.115,0.258-0.118  c0.077,0,0.193,0.036,0.263,0.105l0.764,0.764l7.476-7.477l0.509,0.51l-7.476,7.477l0.763,0.763c0.07,0.07,0.108,0.165,0.105,0.264  s-0.045,0.191-0.118,0.258L3.1,31.148C3.032,31.209,2.945,31.24,2.858,31.24z M1.613,29.125l1.257,1.258l2.695-2.451L4.063,26.43  L1.613,29.125z M21.361,14.518l-0.51-0.509l9.311-9.311c0.384-0.383,0.595-0.892,0.595-1.433s-0.211-1.05-0.595-1.433  c-0.788-0.788-2.074-0.79-2.864,0l-9.311,9.311l-0.51-0.509l9.311-9.311c1.038-1.038,2.848-1.036,3.884,0  c0.519,0.519,0.805,1.208,0.805,1.942s-0.286,1.423-0.805,1.942L21.361,14.518z M19.674,12.831l-0.51-0.509l9.282-9.282l0.51,0.509  L19.674,12.831z" />
  </g>
  <g id="threedot">
    <circle cx="9" cy="9" r="2.5" style="transform:translateX(2px);"></circle>
    <circle cx="21" cy="9" r="2.5" style="transform:translateX(2px);"></circle>
    <circle cx="33" cy="9" r="2.5" style="transform:translateX(2px);"></circle>
  </g>
  <g id="notelocker">
    <path fill="currentColor" d="M120 180h-12v-8a24 24 0 0 0-48 0v8H48a4 4 0 0 0-4 4v40a4 4 0 0 0 4 4h72a4 4 0 0 0 4-4v-40a4 4 0 0 0-4-4Zm-52-8a16 16 0 0 1 32 0v8H68Zm48 48H52v-32h64Zm94.83-134.83l-56-56A4 4 0 0 0 152 28H56a12 12 0 0 0-12 12v88a4 4 0 0 0 8 0V40a4 4 0 0 1 4-4h92v52a4 4 0 0 0 4 4h52v124a4 4 0 0 1-4 4h-40a4 4 0 0 0 0 8h40a12 12 0 0 0 12-12V88a4 4 0 0 0-1.17-2.83ZM156 41.65L198.34 84H156Z" />
  </g>
  <g id="share_note">
    <path fill="currentColor" d="M32.5,45H8c-0.551,0-1-0.449-1-1V4c0-0.551,0.449-1,1-1h24.5c0.133,0,0.26,0.053,0.354,0.146l8,8C40.947,11.24,41,11.367,41,11.5v8c0,0.276-0.224,0.5-0.5,0.5S40,19.776,40,19.5v-7.793L32.293,4H8v40h24.5c0.276,0,0.5,0.224,0.5,0.5S32.776,45,32.5,45z" />
    <path fill="currentColor" d="M40.5 12c-.128 0-.256-.049-.354-.146L33 4.707V11h4.969c.276 0 .5.224.5.5s-.224.5-.5.5H33c-.551 0-1-.449-1-1V3.5c0-.202.122-.385.309-.462.188-.077.402-.034.545.108l8 8c.195.195.195.512 0 .707C40.756 11.951 40.628 12 40.5 12zM37 45c-2.206 0-4-1.794-4-4s1.794-4 4-4 4 1.794 4 4S39.206 45 37 45zM37 38c-1.654 0-3 1.346-3 3s1.346 3 3 3 3-1.346 3-3S38.654 38 37 38zM37 28c-2.206 0-4-1.794-4-4s1.794-4 4-4 4 1.794 4 4S39.206 28 37 28zM37 21c-1.654 0-3 1.346-3 3s1.346 3 3 3 3-1.346 3-3S38.654 21 37 21z" />
    <path fill="currentColor" d="M26.244 31.551l8.191-5.266c-.219-.252-.407-.53-.547-.837l-8.191 5.266C25.916 30.966 26.103 31.244 26.244 31.551zM34.253 38.854l-8.003-4.573c-.124.315-.298.602-.503.864l8.003 4.573C33.874 39.403 34.048 39.117 34.253 38.854z" />
    <path fill="currentColor" d="M23 37c-2.206 0-4-1.794-4-4s1.794-4 4-4 4 1.794 4 4S25.206 37 23 37zM23 30c-1.654 0-3 1.346-3 3s1.346 3 3 3 3-1.346 3-3S24.654 30 23 30zM17.5 35h-5c-.276 0-.5-.224-.5-.5s.224-.5.5-.5h5c.276 0 .5.224.5.5S17.776 35 17.5 35zM17.5 31h-5c-.276 0-.5-.224-.5-.5s.224-.5.5-.5h5c.276 0 .5.224.5.5S17.776 31 17.5 31zM29.5 27h-17c-.276 0-.5-.224-.5-.5s.224-.5.5-.5h17c.276 0 .5.224.5.5S29.776 27 29.5 27zM31.5 23h-19c-.276 0-.5-.224-.5-.5s.224-.5.5-.5h19c.276 0 .5.224.5.5S31.776 23 31.5 23zM33.5 19h-21c-.276 0-.5-.224-.5-.5s.224-.5.5-.5h21c.276 0 .5.224.5.5S33.776 19 33.5 19zM35.5 15h-23c-.276 0-.5-.224-.5-.5s.224-.5.5-.5h23c.276 0 .5.224.5.5S35.776 15 35.5 15z" />
  </g>
  <g id="sender">
    <path fill="currentColor" d="m221.89 117.43l-168-95.88A12 12 0 0 0 36.7 36l31.05 90.48v.05a4.09 4.09 0 0 1 0 2.74L36.72 220A12 12 0 0 0 48 236a12.13 12.13 0 0 0 5.93-1.57l167.94-96.08a12 12 0 0 0 0-20.92Zm-4 14L50 227.47a4 4 0 0 1-5.7-4.88l31-90.59H136a4 4 0 0 0 0-8H75.35a.65.65 0 0 1 0-.13l-31.1-90.5A4 4 0 0 1 50 28.52l168 95.87a4 4 0 0 1 0 7Z" />
  </g>
  <g id="n1">
    <g>
      <g>
        <polygon points="283.826,0 283.826,146.021 333.913,85.918 384,146.021 384,0   " />
      </g>
    </g>
    <g>
      <g>
        <path d="M55.652,0c-9.217,0-16.696,7.473-16.696,16.696v478.609c0,9.223,7.479,16.696,16.696,16.696h50.087V0H55.652z" />
      </g>
    </g>
    <g>
      <g>
        <path d="M456.348,0h-5.565h-11.13h-22.261v146.021c0,14.06-8.804,26.608-22.022,31.397c-3.718,1.348-7.56,1.995-11.364,1.995    c-9.722,0-19.184-4.25-25.658-12.016l-24.435-29.32l-24.435,29.321c-6.468,7.767-15.934,12.016-25.658,12.016    c-3.804,0-7.647-0.647-11.364-1.995c-13.217-4.788-22.022-17.338-22.022-31.398V0h-22.261H139.13v512h317.217    c9.217,0,16.696-7.473,16.696-16.696V16.696C473.043,7.473,465.565,0,456.348,0z M221.935,311.652h133.565    c9.217,0,16.696,7.473,16.696,16.696c0,9.223-7.479,16.696-16.696,16.696H221.935c-9.217,0-16.696-7.473-16.696-16.696    C205.24,319.125,212.717,311.652,221.935,311.652z M388.892,411.826H188.544c-9.217,0-16.696-7.473-16.696-16.696    s7.479-16.696,16.696-16.696h200.348c9.217,0,16.696,7.473,16.696,16.696S398.109,411.826,388.892,411.826z" />
      </g>
    </g>
  </g>
  <g id="n2">
    <g>
      <g>
        <path d="M413.5,56.533v39.478h13.904v15.059H413.5v27.5h13.904v15.059H409.25c-1.041,0.51-2.15,0.809-3.279,0.809    c-1.316,0-2.632-0.346-3.809-1.037l-25.39-14.875l-25.389,14.875c-2.184,1.288-4.831,1.333-7.087,0.227H267.75V138.57h72.294    v-27.5H267.75V96.011h72.294V56.533h-70.647c-10.36,0-18.787,8.427-18.787,18.787v296.765c5.411-3.669,11.904-5.801,18.787-5.801    h177.184V56.533H413.5z M427.405,327.879H267.75V312.82h159.654V327.879z M427.405,284.518H267.75V269.46h159.654V284.518z     M427.405,241.158H267.75v-15.059h159.654V241.158z M427.405,197.798H267.75v-15.059h159.654V197.798z" />
      </g>
    </g>
    <g>
      <g>
        <path d="M355.103,56.533v77.235l17.86-10.463c1.176-0.691,2.492-1.037,3.808-1.037c1.317,0,2.633,0.346,3.809,1.037l17.861,10.463    V56.533H355.103z" />
      </g>
    </g>
    <g>
      <g>
        <path d="M216.761,56.533H39.57v309.75h177.191c6.882,0,13.372,2.132,18.787,5.801V75.32    C235.548,64.96,227.122,56.533,216.761,56.533z M187.34,111.075c0,2.647-0.285,5.229-0.779,7.73l-38.947-7.73l32.467-22.792    C184.622,94.743,187.34,102.578,187.34,111.075z M136.025,68.419c13.443,0,25.277,6.719,32.466,16.938l-32.466,22.791V68.419z     M129.544,73.324v39.728l38.947,7.73c-3.601,18.237-19.656,31.996-38.947,31.996c-21.94,0-39.726-17.786-39.726-39.726    C89.818,91.11,107.604,73.324,129.544,73.324z M218.404,327.879H58.753V312.82h159.651V327.879z M218.404,284.518H58.753V269.46    h159.651V284.518z M218.404,241.158H58.753v-15.059h159.651V241.158z M218.404,197.798H58.753v-15.059h159.651V197.798z" />
      </g>
    </g>
    <g>
      <g>
        <path d="M478.492,85.592h-16.853v288.221c0,4.161-3.367,7.529-7.529,7.529H269.397c-9.213,0-17.162,6.919-18.485,16.096    c-0.537,3.706-3.713,6.456-7.456,6.456c-0.067,0-0.125-0.035-0.191-0.038c-0.066,0.002-0.121,0.038-0.188,0.038    c-3.743,0-7.297-2.75-7.831-6.456c-1.324-9.177-9.272-16.096-18.485-16.096H32.041c-4.159,0-7.529-3.368-7.529-7.529V85.592H3.386    C1.519,85.592,0,87.115,0,88.982v312.117c0,1.868,1.519,3.39,3.386,3.39h210.099c3.364,0,6.32,2.236,7.242,5.471    c2.577,9.059,10.89,15.389,20.214,15.389c9.324,0,17.632-6.331,20.213-15.389c0.919-3.235,3.875-5.471,7.243-5.471h210.095    c1.868,0,3.39-1.522,3.39-3.39V88.982C481.882,87.115,480.361,85.592,478.492,85.592z" />
      </g>
    </g>
  </g>
  <g id="n3">
    <path d="M58.453,45.101c-0.116-0.367-0.434-0.634-0.814-0.688l-7.777-1.089l-3.472-6.78c-0.342-0.668-1.438-0.668-1.779,0   l-3.472,6.78l-7.777,1.089c-0.381,0.054-0.698,0.32-0.814,0.688s-0.012,0.768,0.269,1.031l5.605,5.267L37.1,58.825   c-0.066,0.373,0.084,0.752,0.388,0.978c0.305,0.226,0.711,0.262,1.049,0.089l6.964-3.528l6.964,3.528   C52.607,59.965,52.762,60,52.916,60c0.211,0,0.421-0.066,0.597-0.197c0.304-0.226,0.454-0.604,0.388-0.978l-1.321-7.427   l5.605-5.267C58.465,45.868,58.57,45.468,58.453,45.101z M50.816,50.312c-0.246,0.231-0.359,0.571-0.3,0.903l1.064,5.987   l-5.628-2.852c-0.143-0.072-0.297-0.108-0.452-0.108s-0.31,0.036-0.452,0.108l-5.628,2.852l1.064-5.987   c0.06-0.332-0.054-0.672-0.3-0.903l-4.479-4.207l6.225-0.872c0.322-0.045,0.603-0.244,0.751-0.534l2.818-5.504l2.818,5.504   c0.148,0.29,0.429,0.489,0.751,0.534l6.225,0.872L50.816,50.312z" />
    <path d="M18.5,22h20V12h-20V22z M21.5,14h14v2h-14V14z M21.5,18h14v2h-14V18z" />
    <path d="M25.928,42.998c0.116-0.367,0.434-0.634,0.814-0.688l12.437-1.741l5.432-10.608c0.342-0.668,1.438-0.668,1.779,0   l1.11,2.169V0h-36h-10v60h10h22.343l1.339-7.527l-8.986-8.443C25.916,43.766,25.812,43.365,25.928,42.998z M9.5,58h-6V2h6V58z    M16.5,10h24v14h-24V10z" />
  </g>
  <g id="n4">
    <path d="M57.407,35.724l-2.85-2.85c-1.128-1.127-3.092-1.127-4.221,0L34.946,48.265l-2.121,7.779l-0.519,0.519   c-0.388,0.388-0.389,1.014-0.006,1.405l-0.005,0.02l0.019-0.005c0.194,0.191,0.446,0.288,0.699,0.288   c0.256,0,0.512-0.098,0.707-0.293l0.52-0.52l7.778-2.121l15.39-15.391C58.572,38.781,58.572,36.888,57.407,35.724z M37.255,48.784   l10.243-10.243l4.243,4.243L41.498,53.027L37.255,48.784z M36.352,50.71l3.22,3.22l-4.428,1.208L36.352,50.71z M55.993,38.531   l-2.839,2.839l-4.243-4.242l2.839-2.839c0.373-0.373,1.022-0.372,1.394-0.001l2.85,2.85C56.378,37.521,56.378,38.147,55.993,38.531   z" />
    <path d="M18.719,22h20V12h-20V22z M21.719,14h14v2h-14V14z M21.719,18h14v2h-14V18z" />
    <path d="M47.719,31.249V0h-36h-10v60h10h16.916l3.625-13.293L47.719,31.249z M9.719,58h-6V2h6V58z M16.719,24V10h24v14H16.719z" />
  </g>
  <g id="github">
    <path d="M 24 4 C 12.972066 4 4 12.972074 4 24 C 4 35.027926 12.972066 44 24 44 C 35.027934 44 44 35.027926 44 24 C 44 12.972074 35.027934 4 24 4 z M 24 7 C 33.406615 7 41 14.593391 41 24 C 41 31.66536 35.956939 38.122519 29 40.251953 L 29 35.136719 C 29 33.226635 27.899316 31.588619 26.308594 30.773438 A 10 8 0 0 0 32.4375 18.720703 C 32.881044 17.355414 33.376523 14.960672 32.199219 13.076172 C 29.929345 13.076172 28.464667 14.632086 27.765625 15.599609 A 10 8 0 0 0 24 15 A 10 8 0 0 0 20.230469 15.59375 C 19.529731 14.625773 18.066226 13.076172 15.800781 13.076172 C 14.449711 15.238817 15.28492 17.564557 15.732422 18.513672 A 10 8 0 0 0 21.681641 30.779297 C 20.3755 31.452483 19.397283 32.674042 19.097656 34.15625 L 17.783203 34.15625 C 16.486203 34.15625 15.98225 33.629234 15.28125 32.740234 C 14.58925 31.851234 13.845172 31.253859 12.951172 31.005859 C 12.469172 30.954859 12.144453 31.321484 12.564453 31.646484 C 13.983453 32.612484 14.081391 34.193516 14.650391 35.228516 C 15.168391 36.160516 16.229687 37 17.429688 37 L 19 37 L 19 40.251953 C 12.043061 38.122519 7 31.66536 7 24 C 7 14.593391 14.593385 7 24 7 z"/>
  </g>
  <g id="write">
    <path d="M89.85,87.54,80.28,112,45,111.53l-9.76-24c8.39-15,16.91-33.3,21.29-49.31l4.65.5L61,81.86a4.48,4.48,0,1,0,2.79-.12L63.94,39l5.32-.24c3.9,16.14,12.34,34.38,20.59,48.8ZM53.42,0H71.86a2.46,2.46,0,0,1,2.46,2.47v6H103.4a10,10,0,0,1,2.37-3.76v0a10,10,0,0,1,14.15,0l0,0a10,10,0,0,1,0,14.15h0a10,10,0,0,1-14.17,0l-.18-.2a9.88,9.88,0,0,1-2.19-3.57h-15a54.8,54.8,0,0,1,13,10.51,58.26,58.26,0,0,1,14.32,29.58h4a3,3,0,0,1,3,3V71.69a3,3,0,0,1-3,3H106.43a3,3,0,0,1-3-3V58.18a3,3,0,0,1,3-3h3.09A52.2,52.2,0,0,0,96.89,29.76,47.29,47.29,0,0,0,74.32,15.85v5.28a2.47,2.47,0,0,1-2.46,2.47H53.42A2.48,2.48,0,0,1,51,21.13V15.86A47.14,47.14,0,0,0,28,30.34,52.74,52.74,0,0,0,15.83,55.21h3a3,3,0,0,1,3,3V71.69a3,3,0,0,1-3,3H5.49a3,3,0,0,1-3-3V58.18a3,3,0,0,1,3-3h4.1A59,59,0,0,1,23.38,26.27,54.56,54.56,0,0,1,37,15.12H19.48a10,10,0,0,1-2.37,3.75v0A10,10,0,0,1,3,18.89l0,0a10,10,0,0,1,0-14.15l0,0a10,10,0,0,1,14.15,0h0a9.85,9.85,0,0,1,2.38,3.77H51v-6A2.47,2.47,0,0,1,53.42,0Zm26,122.45H45.2v-6.82H79.44v6.82Z"/>
  </g>
  <g id="themes">
    <path class="st0" d="M49.11,35.13c7.2,5.16,18.74-0.38,23.28,8.6c1.2,2.38,1.46,5.64,0.38,8.23c-0.44,1.04-1.08,1.97-1.96,2.68 c-0.39,0.31-0.82,0.59-1.3,0.83c-5.92,2.94-12.1-1.17-15.37-6.14C51.13,44.75,49.82,39.04,49.11,35.13L49.11,35.13z M100.01,0H7.26 C3.27,0,0,3.27,0,7.26v77.78c0,3.99,3.27,7.26,7.26,7.26h72.36l-6.27-5.34H7.12c-0.56,0-1.05-0.21-1.42-0.59 c-0.37-0.37-0.59-0.87-0.59-1.42V20.33H5.08h96.79V50l5.4,4.38V7.26C107.27,3.27,104,0,100.01,0L100.01,0z M14.17,8.16 c-1.98,0-3.59,1.61-3.59,3.59c0,1.98,1.61,3.58,3.59,3.58c1.98,0,3.59-1.61,3.59-3.58C17.76,9.77,16.15,8.16,14.17,8.16L14.17,8.16 z M38.48,8.16c-1.98,0-3.59,1.61-3.59,3.59c0,1.98,1.6,3.58,3.59,3.58c1.98,0,3.59-1.61,3.59-3.58 C42.07,9.77,40.46,8.16,38.48,8.16L38.48,8.16z M26.33,8.16c-1.98,0-3.59,1.61-3.59,3.59c0,1.98,1.61,3.58,3.59,3.58 c1.98,0,3.59-1.61,3.59-3.58C29.91,9.77,28.31,8.16,26.33,8.16L26.33,8.16z M85.63,74.54c4.01-3.2,7.12-6.89,9.24-11.12l25.8,27.21 c1.95,1.84,3.05,3.41,1.42,6.23c-0.81,0.83-1.67,1.28-2.58,1.34c-0.9,0.06-1.85-0.26-2.84-0.98L85.63,74.54L85.63,74.54z M72.02,58.75c1.74-0.93,4.12-3.23,4.69-5.74l16.15,8.86c-2.33,4.64-5.3,8.61-9.37,11.43C79.24,67.6,76.86,64.16,72.02,58.75 L72.02,58.75z"/>
  </g>
  <g id="javascript">
    <path d="M0 32v448h448V32H0zm243.8 349.4c0 43.6-25.6 63.5-62.9 63.5-33.7 0-53.2-17.4-63.2-38.5l34.3-20.7c6.6 11.7 12.6 21.6 27.1 21.6 13.8 0 22.6-5.4 22.6-26.5V237.7h42.1v143.7zm99.6 63.5c-39.1 0-64.4-18.6-76.7-43l34.3-19.8c9 14.7 20.8 25.6 41.5 25.6 17.4 0 28.6-8.7 28.6-20.8 0-14.4-11.4-19.5-30.7-28l-10.5-4.5c-30.4-12.9-50.5-29.2-50.5-63.5 0-31.6 24.1-55.6 61.6-55.6 26.8 0 46 9.3 59.8 33.7L368 290c-7.2-12.9-15-18-27.1-18-12.3 0-20.1 7.8-20.1 18 0 12.6 7.8 17.7 25.9 25.6l10.5 4.5c35.8 15.3 55.9 31 55.9 66.2 0 37.8-29.8 58.6-69.7 58.6z"/>
  </g>
  <g id="settings_props">
    <circle cx="12" cy="12" r="3"/><path d="M19.4 15a1.65 1.65 0 0 0 .33 1.82l.06.06a2 2 0 0 1 0 2.83 2 2 0 0 1-2.83 0l-.06-.06a1.65 1.65 0 0 0-1.82-.33 1.65 1.65 0 0 0-1 1.51V21a2 2 0 0 1-2 2 2 2 0 0 1-2-2v-.09A1.65 1.65 0 0 0 9 19.4a1.65 1.65 0 0 0-1.82.33l-.06.06a2 2 0 0 1-2.83 0 2 2 0 0 1 0-2.83l.06-.06a1.65 1.65 0 0 0 .33-1.82 1.65 1.65 0 0 0-1.51-1H3a2 2 0 0 1-2-2 2 2 0 0 1 2-2h.09A1.65 1.65 0 0 0 4.6 9a1.65 1.65 0 0 0-.33-1.82l-.06-.06a2 2 0 0 1 0-2.83 2 2 0 0 1 2.83 0l.06.06a1.65 1.65 0 0 0 1.82.33H9a1.65 1.65 0 0 0 1-1.51V3a2 2 0 0 1 2-2 2 2 0 0 1 2 2v.09a1.65 1.65 0 0 0 1 1.51 1.65 1.65 0 0 0 1.82-.33l.06-.06a2 2 0 0 1 2.83 0 2 2 0 0 1 0 2.83l-.06.06a1.65 1.65 0 0 0-.33 1.82V9a1.65 1.65 0 0 0 1.51 1H21a2 2 0 0 1 2 2 2 2 0 0 1-2 2h-.09a1.65 1.65 0 0 0-1.51 1z"/>
  </g>
  <g id="watch_mirror">
    <g>
      <g>
        <path d="M357.236,85c-19.782-19.782-48.873-29.091-79.127-26.764c-5.818,0-10.473,5.818-10.473,12.8    c1.164,6.982,5.818,11.636,12.8,10.473c23.273-2.327,45.382,4.655,60.509,19.782c15.127,15.127,22.109,36.073,19.782,60.509    c-1.164,5.818,4.655,11.636,10.473,12.8h1.164c5.818,0,10.473-4.655,11.636-10.473C386.327,133.873,377.018,104.782,357.236,85z"/>
      </g>
    </g>
    <g>
      <g>
        <path d="M395.636,46.6C365.382,16.346,323.491-1.109,279.273,0.055c-6.982,0-11.636,5.818-11.636,11.636    c0,6.982,5.818,11.636,11.636,11.636c38.4-1.164,73.309,13.964,100.073,39.564c26.764,26.764,40.727,61.673,39.564,100.073    c0,6.982,4.655,11.636,11.636,11.636c5.818,0,11.636-4.655,11.636-11.636C443.345,118.746,425.891,78.018,395.636,46.6z"/>
      </g>
    </g>
    <g>
      <g>
        <path d="M368.873,306.091l-76.8-76.8l22.109-87.273c1.164-3.491,0-8.145-3.491-10.473c-2.327-2.327-6.982-3.491-10.473-3.491    l-87.273,22.109l-76.8-76.8c-4.655-4.655-11.636-4.655-16.291,0c-32.582,32.582-50.036,76.8-50.036,124.509    c0,46.545,18.618,90.764,51.2,123.345c18.618,18.618,40.727,32.582,65.164,40.727v33.745c0,3.491,1.164,5.818,3.491,8.146    l45.382,45.382c10.473,10.473,17.455,24.436,19.782,39.564H140.8c2.327-15.127,9.309-29.091,19.782-39.564l10.473-10.473    c4.655-4.655,4.655-11.636,0-16.291c-4.655-4.655-11.636-4.655-16.291,0l-10.473,10.473    c-17.455,17.455-27.927,41.891-27.927,67.491c0,6.982,4.655,11.636,11.636,11.636h139.636c6.982,0,11.636-4.655,11.636-11.636    c0-25.6-10.473-50.036-27.927-67.491l-41.891-41.891V353.8c0-4.655-3.491-9.309-8.145-11.636c-24.436-6.982-46.545-19.782-64-38.4    c-27.927-27.927-44.218-65.164-44.218-105.891c0-37.236,12.8-72.145,34.909-100.073l216.436,216.436    c-26.764,23.273-61.673,34.909-98.909,34.909c0,0,0,0-1.164,0c-6.982,0-11.636,4.655-11.636,11.636s4.655,11.636,11.636,11.636    c0,0,0,0,1.164,0c47.709,0,91.927-17.455,123.345-50.036C373.527,317.727,373.527,310.746,368.873,306.091z M273.455,209.509    l-40.727-40.727l53.527-12.8L273.455,209.509z"/>
      </g>
    </g>
  </g>
  <g id="mail">
    <g stroke-width="0"/>
      <g stroke-linecap="round" stroke-linejoin="round" stroke="none" stroke-width="1"/>
      <g id="SVGRepo_iconCarrier"> <g> <g> <path d="M174.545,302.545H81.455c-6.982,0-11.636,4.655-11.636,11.636s4.655,11.636,11.636,11.636h93.091 c6.982,0,11.636-4.655,11.636-11.636S181.527,302.545,174.545,302.545z"/> </g> </g> <g> <g> <path d="M139.636,244.364H46.545c-6.982,0-11.636,4.655-11.636,11.636s4.655,11.636,11.636,11.636h93.091 c6.982,0,11.636-4.655,11.636-11.636S146.618,244.364,139.636,244.364z"/> </g> </g> <g> <g> <path d="M104.727,186.182H11.636C4.655,186.182,0,190.836,0,197.818s4.655,11.636,11.636,11.636h93.091 c6.982,0,11.636-4.655,11.636-11.636S111.709,186.182,104.727,186.182z"/> </g> </g> <g> <g> <path d="M463.127,155.927c-3.491-4.655-11.636-5.818-16.291-2.327l-123.345,94.255c-12.8,9.309-30.255,9.309-43.055,0 L157.091,153.6c-4.655-3.491-12.8-3.491-16.291,2.327c-3.491,4.655-3.491,12.8,2.327,16.291l124.509,94.255 c10.473,8.145,23.273,11.636,34.909,11.636s25.6-3.491,34.909-11.636L460.8,172.218 C465.455,168.727,466.618,160.582,463.127,155.927z"/> </g> </g> <g> <g> <path d="M477.091,104.727H104.727c-6.982,0-11.636,4.655-11.636,11.636S97.745,128,104.727,128h372.364 c6.982,0,11.636,4.655,11.636,11.636v232.727c0,6.982-4.655,11.636-11.636,11.636H104.727c-6.982,0-11.636,4.655-11.636,11.636 c0,6.982,4.655,11.636,11.636,11.636h372.364c19.782,0,34.909-15.127,34.909-34.909V139.636 C512,119.855,496.873,104.727,477.091,104.727z"/> </g> </g> <g> <g> <path d="M461.964,340.945l-69.818-69.818c-4.655-4.655-11.636-4.655-16.291,0s-4.655,11.636,0,16.291l69.818,69.818 c2.327,2.327,5.818,3.491,8.145,3.491s5.818-1.164,8.146-3.491C466.618,352.582,466.618,345.6,461.964,340.945z"/></g>
      </g>
    </g>
  </g>
  <g id="pin">
    <g style="stroke: none; stroke-width: 0; stroke-dasharray: none; stroke-linecap: butt; stroke-linejoin: miter; stroke-miterlimit: 10; fill: none; fill-rule: nonzero; opacity: 1;" transform="translate(1.4065934065934016 1.4065934065934016) scale(2.81 2.81)">
	  <path d="M 84.303 82.191 l -6.492 -6.492 l -6.492 -6.492 c -1.077 -1.087 -2.175 -2.153 -3.235 -3.257 c -0.016 -0.009 -0.031 -0.017 -0.047 -0.025 l -2.154 -2.154 L 90 39.653 l -1.056 -1.056 c -9.367 -9.368 -23.457 -12.705 -36.139 -8.632 l -7.345 -7.344 c 0.929 -7.947 -1.815 -15.958 -7.422 -21.565 L 36.983 0 L 0 36.982 l 1.057 1.056 c 5.606 5.606 13.614 8.353 21.565 7.422 l 7.345 7.345 c -4.073 12.681 -0.737 26.772 8.631 36.139 L 39.653 90 l 24.117 -24.117 l 2.155 2.155 c 0.008 0.015 0.016 0.031 0.025 0.046 c 1.1 1.058 2.164 2.152 3.247 3.226 l 8.081 8.081 l 0 0 l 4.912 4.912 l 3.246 3.246 c 1.403 0.761 2.796 1.532 4.302 2.19 c -0.658 -1.506 -1.429 -2.899 -2.19 -4.302 L 84.303 82.191 z M 33.086 52.897 l 0.311 -0.886 l -9.714 -9.714 l -0.742 0.108 c -6.763 0.987 -13.633 -1.042 -18.681 -5.459 L 36.948 4.26 c 4.415 5.047 6.447 11.92 5.458 18.68 l -0.108 0.742 l 9.714 9.714 l 0.886 -0.311 c 11.361 -3.984 24.084 -1.387 32.853 6.593 L 39.678 85.75 C 31.698 76.981 29.102 64.254 33.086 52.897 z" style="stroke: none; stroke-width: 1; stroke-dasharray: none; stroke-linecap: butt; stroke-linejoin: miter; stroke-miterlimit: 10; fill: rgb(0,0,0); fill-rule: nonzero; opacity: 1;" transform=" matrix(1 0 0 1 0 0) " stroke-linecap="round"/></g>
  </g>
  <g id="undo">
    <path d="M4.75 2C5.1297 2 5.44349 2.28215 5.49315 2.64823L5.5 2.75V8.44L10.0743 3.88014C12.5163 1.43819 16.4385 1.37863 18.9526 3.70146L19.1385 3.88014C21.6415 6.38313 21.6415 10.4413 19.1385 12.9443L10.2933 21.7835C10.0003 22.0762 9.52558 22.0759 9.23269 21.783C8.93979 21.4901 8.94013 21.0151 9.23315 20.7223L18.0778 11.8836C19.995 9.96641 19.995 6.85801 18.0778 4.9408C16.2187 3.08169 13.2395 3.02535 11.3118 4.77248L11.1342 4.94156L6.562 9.5L12.25 9.50018C12.6297 9.50018 12.9435 9.78234 12.9932 10.1484L13 10.2502C13 10.6299 12.7178 10.9437 12.3518 10.9933L12.25 11.0002H4.75C4.3703 11.0002 4.05651 10.718 4.00685 10.352L4 10.2502V2.75C4 2.33579 4.33579 2 4.75 2Z" fill="currentColor"></path>
  </g>
</svg>